<svg width="1442" height="542" viewBox="0 0 1442 542" fill="none" xmlns="http://www.w3.org/2000/svg">
<path d="M540 0H720V181H540V0Z" fill="#376A9B"/>
<path d="M540 361H720V542H540V361Z" fill="#376A9B"/>
<path d="M540 0H-1.57952e-05V542H540V0Z" fill="#0E4981"/>
<path d="M540 181V0C692.892 7.85736 723.504 123.941 719.698 181H540Z" fill="#0D2A45"/>
<path d="M540 361V180C387.108 187.857 356.496 303.941 360.302 361H540Z" fill="#0D2A45"/>
<path d="M180 1V182C332.892 174.143 363.504 58.0594 359.698 1H180Z" fill="#0D2A45"/>
<path d="M540 0H360V181H540V0Z" fill="#376A9B"/>
<path d="M360 361H180V542H360V361Z" fill="#0D2A45"/>
<path d="M295 271C295 221.294 254.706 181 205 181H90C40.2944 181 0 221.294 0 271C0 320.706 40.2944 361 90 361H205C254.706 361 295 320.706 295 271Z" fill="#0D2A45"/>
<path d="M720 451.5C720 401.518 679.706 361 630 361H515C465.294 361 425 401.518 425 451.5C425 501.482 465.294 542 515 542H630C679.706 542 720 501.482 720 451.5Z" fill="#0D2A45"/>
<path d="M180 0H0V181H180V0Z" fill="#376A9B"/>
<path d="M180 90.5C180 40.5182 139.706 0 90 0C40.2944 0 0 40.5182 0 90.5C0 140.482 40.2944 181 90 181C139.706 181 180 140.482 180 90.5Z" fill="#0D2A45"/>
<path d="M180 361H0V542H180V361Z" fill="#376A9B"/>
<path d="M180 451.5C180 401.518 139.706 361 90 361C40.2944 361 0 401.518 0 451.5C0 501.482 40.2944 542 90 542C139.706 542 180 501.482 180 451.5Z" fill="#0D2A45"/>
<path d="M540 361H360V542H540V361Z" fill="#376A9B"/>
<path d="M360 181H180V361H360V181Z" fill="#376A9B"/>
<path d="M360 271C360 221.294 319.706 181 270 181C220.294 181 180 221.294 180 271C180 320.706 220.294 361 270 361C319.706 361 360 320.706 360 271Z" fill="#0D2A45"/>
<path d="M540 91C540 41.2944 499.706 1 450 1C400.294 1 360 41.2944 360 91C360 140.706 400.294 181 450 181C499.706 181 540 140.706 540 91Z" fill="#0D2A45"/>
<path d="M540 451C540 401.294 499.706 361 450 361C400.294 361 360 401.294 360 451C360 500.706 400.294 541 450 541C499.706 541 540 500.706 540 451Z" fill="#0D2A45"/>
<path d="M720 181H540V361H720V181Z" fill="#376A9B"/>
<path d="M900.332 0L720 0V181H900.332V0Z" fill="#376A9B"/>
<path d="M900.332 361H720V542H900.332V361Z" fill="#376A9B"/>
<path d="M900.332 0L1441.33 0V542H900.332V0Z" fill="#0E4981"/>
<path d="M900.332 181V0C747.158 7.85736 716.49 123.941 720.303 181H900.332Z" fill="#0D2A45"/>
<path d="M900.332 361V180C1053.51 187.857 1084.17 303.941 1080.36 361H900.332Z" fill="#0D2A45"/>
<path d="M1261 1.00003V182C1107.82 174.143 1077.15 58.0594 1080.97 1.00003H1261Z" fill="#0D2A45"/>
<path d="M900.332 0L1080.66 0V181H900.332V0Z" fill="#376A9B"/>
<path d="M1081 361H1261V542H1081V361Z" fill="#0D2A45"/>
<path d="M1145.78 271C1145.78 221.294 1186.15 181 1235.95 181H1351.16C1400.96 181 1441.33 221.294 1441.33 271C1441.33 320.706 1400.96 361 1351.16 361H1235.95C1186.15 361 1145.78 320.706 1145.78 271Z" fill="#0D2A45"/>
<path d="M720 451.5C720 401.518 760.431 361 810.305 361H925.695C975.569 361 1016 401.518 1016 451.5C1016 501.482 975.569 542 925.695 542H810.305C760.431 542 720 501.482 720 451.5Z" fill="#0D2A45"/>
<path d="M1261 0L1441.33 0V181H1261V0Z" fill="#376A9B"/>
<path d="M1261 90.5C1261 40.5182 1301.36 0 1351.16 0C1400.96 0 1441.33 40.5182 1441.33 90.5C1441.33 140.482 1400.96 181 1351.16 181C1301.36 181 1261 140.482 1261 90.5Z" fill="#0D2A45"/>
<path d="M1261 361H1441V542H1261V361Z" fill="#376A9B"/>
<path d="M1261 451.5C1261 401.518 1301.29 361 1351 361C1400.71 361 1441 401.518 1441 451.5C1441 501.482 1400.71 542 1351 542C1301.29 542 1261 501.482 1261 451.5Z" fill="#0D2A45"/>
<path d="M900.332 361H1080.66V542H900.332V361Z" fill="#376A9B"/>
<path d="M1080.66 181H1261V361H1080.66V181Z" fill="#376A9B"/>
<path d="M1080.66 271C1080.66 221.294 1121.03 181 1170.83 181C1220.63 181 1261 221.294 1261 271C1261 320.706 1220.63 361 1170.83 361C1121.03 361 1080.66 320.706 1080.66 271Z" fill="#0D2A45"/>
<path d="M900.332 91.0002C900.332 41.2946 940.701 1.00024 990.498 1.00024C1040.3 1.00024 1080.66 41.2946 1080.66 91.0002C1080.66 140.706 1040.3 181 990.498 181C940.701 181 900.332 140.706 900.332 91.0002Z" fill="#0D2A45"/>
<path d="M900 451.5C900 401.518 940.518 361 990.5 361C1040.48 361 1081 401.518 1081 451.5C1081 501.482 1040.48 542 990.5 542C940.518 542 900 501.482 900 451.5Z" fill="#0D2A45"/>
<path d="M720 181H900.332V361H720V181Z" fill="#376A9B"/>
</svg>
